<svg xmlns="http://www.w3.org/2000/svg" version="1.1" viewBox="9.87 101.16 230.16 47.68">
	
	<g transform="matrix(0.0319,0,0,0.0319,73.4003,124.3542)">
		<g transform="matrix(9.1303,0,0,9.1303,-2325.0273,-1072)">
			<path fill="#A72A2A" d="M214.5,75.33h-169c-1.64,0-2.97,1.34-2.97,2.98v100.98c0,1.64,1.33,2.98,2.97,2.98h169  c1.64,0,2.97-1.34,2.97-2.98V78.31C217.47,76.67,216.14,75.33,214.5,75.33z M183.02,113.13c-4.42,0-8-3.58-8-8c0-4.41,3.58-8,8-8  c4.42,0,8,3.59,8,8C191.02,109.55,187.44,113.13,183.02,113.13z M150.98,180.27h-44.59H95.82H67.99H45.5h-0.97l0.22-0.38  l25.42-44.04l11.74,20.32l27.58-47.77l19.2,33.25l12.02-20.82l34.31,59.44H150.98z" style=""/>
			<path fill="#A72A2A" d="M215.39,77.93c-0.05-0.11-0.12-0.22-0.21-0.31C215.27,77.7,215.34,77.81,215.39,77.93z" style=""/>
			<path fill="#A72A2A" d="M215.18,179.98c0.09-0.09,0.16-0.2,0.21-0.31C215.34,179.79,215.27,179.9,215.18,179.98z" style=""/>
			<path fill="#A72A2A" d="M147.67,193.6v6.4c0,0.81-0.66,1.47-1.47,1.47h-32.4c-0.81,0-1.47-0.66-1.47-1.47v-6.4  c0-0.81,0.66-1.47,1.47-1.47h32.4C147.01,192.13,147.67,192.79,147.67,193.6z" style=""/>
			<path fill="#A72A2A" d="M45.5,180.27h-0.97l0.22-0.38C44.92,180.12,45.19,180.27,45.5,180.27z" style=""/>
			<path fill="#A72A2A" d="M214.5,69.33h-24.499l-56.65-30.687c-2.099-1.148-4.603-1.148-6.697-0.002L69.999,69.33H45.5  c-4.95,0-8.97,4.03-8.97,8.98v100.98c0,4.95,4.02,8.98,8.97,8.98h169c4.95,0,8.97-4.03,8.97-8.98V78.31  C223.47,73.36,219.45,69.33,214.5,69.33z M72.566,70.209L72.566,70.209l55.043-29.812c1.497-0.819,3.285-0.82,4.784,0.002  l55.04,29.81l0.075,0.041H72.491L72.566,70.209z M219.47,179.29c0,2.74-2.24,4.98-4.97,4.98h-169c-2.73,0-4.97-2.24-4.97-4.98V78.31  c0-2.74,2.24-4.98,4.97-4.98h169c2.73,0,4.97,2.24,4.97,4.98V179.29z" style=""/>
	
			
		</g>
		<g>
			<g transform="matrix(1.024,0,0,-1.024,0,0)">
				<path d="M184 -10Q104 -10 63 35Q22 81 22 166L22 206L126 206L126 158Q126 90 183 90Q211 90 225 106Q240 123 240 160Q240 204 220 237Q200 271 146 318Q78 378 51 426Q24 475 24 536Q24 619 66 664Q108 710 188 710Q267 710 307 664Q348 619 348 534L348 505L244 505L244 541Q244 577 230 593Q216 610 189 610Q134 610 134 543Q134 505 154 472Q175 439 229 392Q298 332 324 283Q350 234 350 168Q350 82 307 36Q265 -10 184 -10ZM413 0L413 700L523 700L523 415L641 415L641 700L751 700L751 0L641 0L641 315L523 315L523 0L413 0ZM992 -10Q911 -10 868 36Q825 82 825 166L825 534Q825 618 868 664Q911 710 992 710Q1073 710 1116 664Q1159 618 1159 534L1159 166Q1159 82 1116 36Q1073 -10 992 -10ZM992 90Q1049 90 1049 159L1049 541Q1049 610 992 610Q935 610 935 541L935 159Q935 90 992 90ZM1233 0L1233 700L1395 700Q1477 700 1518 656Q1559 612 1559 527L1559 458Q1559 373 1518 329Q1477 285 1395 285L1343 285L1343 0L1233 0ZM1343 385L1395 385Q1422 385 1435 400Q1449 415 1449 451L1449 534Q1449 570 1435 585Q1422 600 1395 600L1343 600L1343 385ZM1603 300L1603 400L1823 400L1823 300L1603 300ZM1889 0L1889 700L1999 700L1999 0L1889 0ZM2167 0L2167 600L2052 600L2052 700L2392 700L2392 600L2277 600L2277 0L2167 0Z" fill="#23263b" style=""/>
			</g>
		</g>
		<g transform="matrix(0.75,0,0,0.75,-8.192,758.272)">
			<g transform="matrix(1.024,0,0,-1.024,0,0)">
				<path d="M250 0L40 0L40 53L116 53L116 510L40 510L40 563L231 563L415 168L590 563L784 563L784 510L708 510L708 53L784 53L784 0L557 0L557 53L630 53L630 496L418 29L392 29L177 496L177 53L250 53L250 0ZM1358 0L863 0L863 53L941 53L941 510L863 510L863 563L1353 563L1353 396L1290 396L1290 510L1023 510L1023 319L1198 319L1198 385L1239 385L1239 197L1198 197L1198 264L1023 264L1023 53L1295 53L1295 170L1358 170L1358 0ZM1683 0L1445 0L1445 53L1523 53L1523 510L1445 510L1445 563L1741 563Q1800 563 1843 546Q1886 530 1909 497Q1932 465 1932 416Q1932 377 1917 346Q1903 315 1871 294Q1839 274 1787 266L1916 53L1999 53L1999 0L1860 0L1709 258L1640 258L1640 313L1728 313Q1777 313 1803 328Q1830 344 1840 367Q1851 391 1851 415Q1851 441 1839 462Q1828 484 1804 497Q1780 510 1742 510L1605 510L1605 53L1683 53L1683 0ZM2288 0L2066 0L2066 53L2146 53L2146 510L2066 510L2066 563L2240 563L2562 108L2562 510L2482 510L2482 563L2703 563L2703 510L2625 510L2625 0L2544 0L2208 479L2208 53L2288 53L2288 0ZM3284 0L3062 0L3062 53L3134 53L3297 510L3234 510L3234 563L3509 563L3509 510L3444 510L3612 53L3680 53L3680 0L3451 0L3451 53L3526 53L3469 217L3265 217L3209 53L3284 53L3284 0ZM3365 509L3281 270L3453 270L3371 509L3365 509ZM3963 0L3744 0L3744 53L3820 53L3820 340L3744 340L3744 393L3893 393L3893 276L3879 278Q3890 323 3907 349Q3925 375 3947 386Q3970 398 3994 398Q4014 398 4034 393Q4054 388 4074 378L4056 311Q4039 322 4022 327Q4005 333 3987 333Q3949 333 3921 301Q3894 270 3894 211L3893 53L3963 53L3963 0ZM4367 0L4294 0Q4238 0 4209 28Q4180 57 4180 116L4180 340L4115 340L4115 393L4180 393L4180 527L4254 556L4254 393L4358 393L4358 340L4254 340L4254 120Q4254 83 4266 68Q4278 53 4307 53L4367 53L4367 0ZM5001 -10Q4961 -10 4926 2Q4892 15 4866 37Q4840 60 4824 90L4837 90L4837 0L4772 0L4772 190L4832 190Q4836 149 4857 117Q4878 85 4914 66Q4950 48 4998 48Q5050 48 5079 72Q5108 97 5108 143Q5108 180 5095 200Q5082 221 5052 232Q5022 244 4972 252L4948 256Q4867 270 4818 309Q4769 349 4769 420Q4769 470 4791 504Q4813 538 4853 556Q4893 574 4946 574Q5005 574 5050 548Q5095 522 5111 477L5090 477L5090 563L5154 563L5154 404L5095 404Q5091 428 5078 454Q5065 480 5035 498Q5005 516 4950 516Q4898 516 4870 491Q4842 467 4842 428Q4842 385 4873 362Q4904 339 4963 328L4986 324Q5052 313 5095 294Q5138 275 5159 242Q5181 209 5181 155Q5181 111 5160 73Q5139 36 5099 13Q5059 -10 5001 -10ZM5495 0L5422 0Q5366 0 5337 28Q5308 57 5308 116L5308 340L5243 340L5243 393L5308 393L5308 527L5382 556L5382 393L5486 393L5486 340L5382 340L5382 120Q5382 83 5394 68Q5406 53 5435 53L5495 53L5495 0ZM5761 -12Q5698 -12 5650 14Q5602 40 5575 87Q5549 134 5549 197Q5549 260 5575 306Q5602 353 5650 378Q5698 404 5761 404Q5825 404 5873 378Q5921 353 5948 306Q5975 260 5975 198Q5975 135 5948 88Q5921 41 5873 14Q5825 -12 5761 -12ZM5761 46Q5803 46 5834 65Q5865 84 5882 118Q5899 152 5899 198Q5899 243 5882 276Q5865 309 5834 327Q5803 346 5761 346Q5720 346 5689 327Q5659 309 5642 275Q5625 242 5625 197Q5625 152 5642 118Q5659 84 5689 65Q5720 46 5761 46ZM6254 0L6035 0L6035 53L6111 53L6111 340L6035 340L6035 393L6184 393L6184 276L6170 278Q6181 323 6198 349Q6216 375 6238 386Q6261 398 6285 398Q6305 398 6325 393Q6345 388 6365 378L6347 311Q6330 322 6313 327Q6296 333 6278 333Q6240 333 6212 301Q6185 270 6185 211L6184 53L6254 53L6254 0ZM6633 -12Q6571 -12 6520 14Q6470 40 6440 87Q6411 134 6411 196Q6411 260 6439 306Q6467 353 6514 378Q6561 404 6619 404Q6679 404 6722 379Q6766 354 6789 308Q6812 262 6812 200L6812 181L6476 181L6477 227L6739 227Q6739 266 6723 293Q6708 321 6681 335Q6654 350 6619 350Q6582 350 6552 332Q6522 315 6504 282Q6487 250 6487 204Q6487 155 6505 119Q6523 84 6555 64Q6588 45 6630 45Q6675 45 6713 63Q6751 81 6779 108L6805 63Q6778 32 6735 10Q6692 -12 6633 -12Z" fill="#23263b" style=""/>
			</g>
		</g>
	</g>
</svg>